<svg version="1.1" xmlns="http://www.w3.org/2000/svg" style="display: block;" preserveAspectRatio="none" viewBox="0 635.02 2048.02 805.38">
<path transform="translate(0,0)" fill="#e63946" d="M 1554.57 955.219 C 1586.84 953.209 1609.25 968.979 1615.15 1000.98 C 1622.23 1039.37 1617.05 1088.83 1571.44 1097.94 C 1554.8 1099.28 1535.93 1096.84 1524.28 1084.45 C 1497.27 1055.73 1498.01 982.055 1535.21 961.287 C 1541.47 957.79 1547.78 956.351 1554.57 955.219 z M 1568.51 1073.18 C 1594.86 1062.21 1593.26 1017.25 1583.72 995.075 C 1578.61 983.213 1568.99 977.588 1556.29 979.247 C 1536.67 987.298 1534.23 1006.4 1533.89 1025.28 C 1533.5 1047.39 1539.27 1078.3 1568.51 1073.18 z"/>
<path transform="translate(0,0)" fill="#e63946" d="M 1231.22 995.11 C 1245.78 994.592 1257.47 996.388 1266.04 1009.94 C 1274.74 1024.55 1276.15 1047.72 1271.86 1064.1 C 1263.58 1095.74 1240.91 1102.93 1213.05 1094.61 L 1212.86 1122.73 L 1212.82 1135.49 L 1188.09 1135.15 C 1186.93 1120.97 1188.42 1105.23 1187.9 1090.87 C 1186.78 1059.66 1188.1 1028.15 1187.63 997.033 L 1206.81 997.193 L 1209.56 1007.87 C 1217.33 999.752 1220.78 997.671 1231.22 995.11 z M 1235.33 1074.84 C 1242.21 1070.04 1246 1063.91 1246.98 1055.59 C 1249.14 1037.22 1248.48 1015.84 1225.01 1016.98 C 1212.3 1024.96 1213.35 1034.45 1212.29 1047.8 C 1211.07 1063.28 1215.1 1081.66 1235.33 1074.84 z"/>
<path transform="translate(0,0)" fill="#e63946" d="M 1424.4 956.395 C 1451.47 954.261 1486.94 954.972 1494.99 987.002 C 1503.57 1021.1 1482.49 1051.03 1446.35 1048.64 C 1443.01 1048.42 1434.63 1048.78 1431.55 1049.62 L 1431.03 1051.75 L 1431 1095.52 C 1422.3 1095.4 1413.6 1095.48 1404.9 1095.74 C 1403.96 1075.29 1404.57 1054.46 1404.61 1034 C 1404.44 1008.97 1404.44 983.939 1404.61 958.909 C 1411.36 957.759 1417.59 957.116 1424.4 956.395 z M 1430.63 1024.88 C 1441.77 1025.94 1450.1 1026.01 1460.57 1021.07 C 1480.04 1002.22 1466.79 978.253 1441 979.079 C 1438.43 979.174 1435.85 979.293 1433.28 979.436 C 1430.87 981.673 1431.07 981.799 1430.93 986.376 C 1430.57 999.155 1430.6 1012.09 1430.63 1024.88 z"/>
<path transform="translate(0,0)" fill="#e63946" d="M 1338.55 955.189 C 1353.89 953.74 1367.28 955.903 1381.54 961.267 C 1379.56 968.239 1377.78 976.586 1376.07 983.727 C 1351.23 975.441 1328.08 975.568 1316.62 1004.1 C 1304.16 1035.09 1322.95 1090.4 1363.99 1068.97 C 1364.19 1060.39 1364.09 1051.46 1364.11 1042.85 C 1357.48 1041.9 1345.72 1041.47 1338.62 1040.92 C 1338.44 1035.24 1338.54 1028.96 1338.52 1023.23 C 1346.41 1022.93 1355.6 1023.48 1363.58 1023.76 C 1371.61 1023.5 1378.59 1023.53 1386.63 1023.72 C 1385.83 1042.62 1386.02 1066.23 1386.54 1085.1 C 1349.28 1111.17 1295.85 1098.68 1287.59 1049.56 C 1280.45 1007.11 1290.38 964.374 1338.55 955.189 z"/>
<path transform="translate(0,0)" fill="#e63946" d="M 1621.42 996.972 C 1629.88 997.352 1639.87 997.143 1648.45 997.179 C 1654.6 1019.07 1660.66 1040.4 1664.81 1062.76 C 1668.4 1044.24 1677.61 1015.32 1683.84 997.266 C 1690.83 997.003 1696.27 997.197 1703.27 997.519 C 1709.42 1016.19 1719.85 1047.18 1722.82 1066.03 C 1724.94 1045.02 1732.34 1018.41 1737.69 997.662 C 1744.57 996.886 1754.51 997.381 1761.68 997.529 L 1753.39 1024.1 C 1746.54 1048.47 1738.9 1072.59 1732.08 1097.01 L 1712 1097.04 C 1705.46 1074.65 1697.06 1054.98 1691.82 1031.56 C 1687.37 1049.93 1678.55 1079.51 1671.79 1096.68 C 1664.37 1096.48 1659.35 1096.47 1651.97 1096.97 C 1641.19 1064.37 1632.27 1030.13 1621.42 996.972 z"/>
<path transform="translate(0,0)" fill="#e63946" d="M 861.587 955.239 C 879.809 954.336 891.441 955.352 908.119 963.3 C 905.644 972.022 903.607 978.067 900.35 986.532 C 891.12 981.723 851.161 969.608 851.494 994.087 C 851.641 1004.9 884.188 1016.22 892.704 1022.54 C 901.119 1028.78 910.015 1037.15 911.359 1049.69 C 913.983 1078.71 899.734 1093.58 873.246 1097.82 C 854.451 1099.18 839.118 1097.72 821.923 1089.93 C 824.563 1081.9 827.404 1073.94 830.442 1066.06 C 842.868 1070.77 868.961 1079.7 881.123 1067.61 C 883.143 1065.6 884.718 1059.57 883.914 1056.59 C 881.296 1046.87 870.138 1042.26 861.91 1038.21 C 845.933 1030.8 828.821 1021.5 825.244 1002.42 C 823.418 992.686 825.219 979.975 831.062 971.632 C 838.402 961.149 849.604 957.417 861.587 955.239 z"/>
<path transform="translate(0,0)" fill="#e63946" d="M 926.87 957.071 C 935.263 957.37 943.663 957.429 952.06 957.249 L 952.067 1006.08 C 973.11 991.013 999.896 986.275 1007.35 1018.92 C 1009.24 1027.19 1008.38 1039.69 1008.49 1048.48 L 1009.26 1095.72 C 1002.34 1095.24 990.95 1095.66 983.71 1095.7 C 984.027 1076.72 984.007 1057.73 983.652 1038.75 C 986.321 1010.65 953.373 1009.68 952.102 1036.17 C 951.164 1055.73 951.905 1075.91 952.117 1095.54 C 944.08 1095.94 934.908 1095.74 926.779 1095.75 L 927.023 1071.45 L 926.077 1070.73 L 926.214 1070.7 L 925.174 1077.93 C 923.417 1060.19 926.455 1057.34 926.641 1040.87 C 926.956 1012.99 926.105 985.001 926.87 957.071 z"/>
<path transform="translate(0,0)" fill="#e63946" d="M 1056.73 995.361 C 1110.69 987.853 1102.17 1029.35 1101.35 1065.43 C 1101.11 1075.96 1102.12 1085.29 1104.65 1095.52 C 1097.44 1095.41 1090.12 1095.7 1082.9 1095.91 C 1081.31 1091.85 1080.35 1087.46 1079.28 1083.22 C 1067.26 1097.49 1053.35 1101.65 1035.64 1093.91 C 1021.02 1081.35 1016.71 1061.95 1031.41 1046.49 C 1041.66 1035.7 1062.57 1036.16 1076.77 1036.78 C 1077.71 1006.21 1054.71 1015.9 1034.73 1022.03 C 1032.72 1017.53 1030.1 1008.41 1028.52 1003.41 C 1039.22 998.251 1044.96 997.074 1056.73 995.361 z M 1063.94 1075.41 C 1077.96 1069.24 1077.54 1066.39 1076.9 1051.77 C 1072.12 1051.75 1066.18 1051.5 1061.53 1052.11 C 1040.96 1058.99 1045.38 1076.75 1063.94 1075.41 z"/>
<path transform="translate(0,0)" fill="#e63946" d="M 1905.05 995.245 C 1945.37 989.774 1954.69 1019.27 1949.15 1052.72 C 1941.25 1052.22 1898.95 1051.07 1893.65 1053.3 C 1892.35 1058.78 1894.12 1067.65 1898.61 1071.34 C 1906.93 1078.21 1919.38 1077.53 1929.23 1074.88 C 1933.04 1073.85 1935.97 1071.86 1939.95 1071.8 L 1941.88 1074.08 C 1945.19 1079.39 1947.8 1081.39 1945.99 1087.67 C 1934.71 1100.21 1901.66 1101.22 1887.85 1092.22 C 1863.24 1076.18 1861.72 1035.32 1876.07 1012.07 C 1882.6 1001.49 1893.71 997.444 1905.05 995.245 z M 1892.95 1037.24 L 1912.75 1037 C 1916.07 1036.98 1924.19 1037.23 1926.94 1036.32 C 1934.52 1025.37 1919.72 1014.05 1907.25 1015.09 C 1896.24 1021.28 1895.69 1025.18 1892.95 1037.24 z"/>
<path transform="translate(0,0)" fill="#e63946" d="M 1814.51 995.181 C 1816.66 995.003 1818.82 994.875 1820.97 994.796 C 1845.62 994.004 1853.37 1012.01 1853.29 1033.7 C 1853.22 1054.43 1853.18 1075.18 1853.05 1095.9 C 1845.96 1095.35 1835.35 1095.55 1827.99 1095.46 C 1827.61 1084.62 1828.1 1073.39 1828.02 1062.49 C 1827.9 1046.54 1831.96 1004.95 1803.16 1021.16 C 1799.59 1024.85 1797.99 1027.74 1795.26 1032.02 C 1794.69 1052.33 1795.22 1075.49 1795.15 1095.99 L 1770.19 1095.88 C 1769.8 1063.16 1770.03 1029.76 1770.02 997.001 L 1790.55 996.999 L 1793.14 1009.47 C 1800.46 1000.78 1804.22 998.653 1814.51 995.181 z"/>
<path transform="translate(0,0)" fill="#e63946" d="M 575.914 1161.49 C 591.306 1161.9 662.543 1158.9 671.526 1164.82 C 675.201 1167.24 677.57 1170.74 678.179 1175.12 C 678.86 1180.02 677.626 1187.12 674.287 1190.88 C 669.345 1196.46 658.26 1195.8 651.5 1195.98 C 616.989 1195.37 581.22 1195.89 546.661 1195.98 C 552.116 1184.68 557.46 1173.33 562.693 1161.92 L 575.914 1161.49 z"/>
<path transform="translate(0,0)" fill="#e63946" d="M 386.157 1093.56 C 405.349 1092.42 427.948 1093 447.406 1093.06 C 443.904 1099.77 442.149 1102.71 437.765 1108.87 C 438.851 1116.22 439.144 1119.63 439.033 1127.23 C 418.884 1126.68 396.097 1127.17 375.75 1127.21 C 360.758 1127.09 332.867 1131.6 321.305 1121.2 C 318.87 1119.01 317.423 1116.14 317.357 1112.84 C 317.259 1107.93 319.954 1101.48 323.41 1098 C 331.309 1090.06 373.416 1094.09 386.157 1093.56 z"/>
<path transform="translate(0,0)" fill="#e63946" d="M 1163.46 995.113 C 1170.48 995.294 1171.93 995.631 1178.59 997.301 C 1176.93 1005.11 1175.62 1013.96 1174.27 1021.89 C 1168.61 1020.19 1165.32 1019.8 1159.56 1019 C 1152.17 1023.29 1147.51 1029.17 1147.19 1037.93 C 1146.49 1056.89 1147.28 1076.67 1147.12 1095.64 L 1127.38 1095.76 L 1123.53 1095.62 C 1123.05 1095.2 1122.58 1094.77 1122.1 1094.34 C 1121.04 1070.43 1122.85 1017.45 1121.28 996.975 C 1127.8 997.166 1134.98 996.99 1141.56 996.957 C 1142.52 1001.11 1142.94 1005.24 1143.48 1009.47 C 1150.22 1001.14 1153.18 997.729 1163.46 995.113 z"/>
<path transform="translate(0,0)" fill="#e63946" fill-opacity="0.0196078" d="M 1665.38 1039.68 C 1666.94 1043.28 1666.2 1048.34 1666.01 1052.43 C 1663.15 1048.19 1664.43 1044.33 1665.38 1039.68 z"/>
<path transform="translate(0,0)" fill="#e63946" d="M 716.832 635.034 L 799.627 635.79 C 815.324 635.781 847.534 634.432 861.174 637.566 C 908.826 648.513 934.296 714.345 932.788 758.491 C 932.295 784.075 932.732 809.7 933.068 835.296 C 933.216 846.639 930.772 850.303 921.385 855.913 C 893.729 857.332 863.459 855.561 835.571 856.155 C 823.278 856.416 809.38 855.467 797.313 857.011 C 797.242 868.92 797.5 882.783 797.007 894.529 C 782.162 905.675 765.363 913.945 747.476 918.91 C 763.379 930.24 780.992 939.411 797.087 950.067 C 796.071 967.907 796.514 988.224 796.487 1006.25 C 796.321 1037.4 796.339 1068.54 796.541 1099.69 C 796.72 1151.4 795.331 1208.77 796.594 1259.86 C 787.285 1260.09 775.363 1260.05 766.279 1260.86 C 776.368 1275.12 786.58 1289.29 796.914 1303.37 C 796.389 1345.43 790.572 1374.04 760.037 1405.05 C 720.763 1444.94 684.731 1440.25 634.553 1440.2 L 521.305 1440.13 L 237.991 1440.11 C 199.789 1440.1 161.31 1439.93 123.266 1440.39 C 67.1132 1441.06 17.108 1400.14 4.11472 1346.03 C 2.46696 1339.17 1.71112 1331.43 0 1324.9 L 0 1280.09 C 3.49984 1269.97 7.50144 1264.69 19.1378 1264.44 C 41.1064 1263.96 63.1405 1264.17 85.1229 1264.18 L 198.977 1264.29 C 200.015 1214.47 198.971 1165.63 198.868 1115.91 C 198.79 1078.19 200.993 1038.26 199.151 1000.52 L 200.145 999.904 C 211.553 1004.37 221.981 1009.56 233.043 1014.07 L 232.495 1171.72 C 232.427 1201.16 231.668 1235 233.071 1264.24 C 301.003 1264.23 374.887 1262.72 442.307 1264.52 C 437.005 1272.55 425.063 1295.14 420.751 1304.09 C 430.334 1314.57 440.181 1324.81 450.28 1334.8 C 437.871 1355.38 425.632 1376.06 413.567 1396.85 C 418.273 1377.51 423.385 1358.28 428.901 1339.15 C 417.869 1328.96 404.263 1319.98 392.372 1310.18 C 393.798 1306.55 395.232 1302.68 396.796 1299.13 C 384.34 1297.38 361.385 1298.04 347.987 1298.04 L 266.756 1298.11 L 115.695 1298.14 C 89.1552 1298.15 60.4948 1297.63 34.0919 1298.39 C 34.0021 1330.62 37.8605 1355.9 61.8225 1379.76 C 73.7348 1391.77 88.794 1400.16 105.267 1403.99 C 124.237 1408.24 171.899 1406.24 193.751 1406.05 C 326.02 1404.89 458.96 1407.67 591.166 1405.97 C 558.519 1370.53 551.394 1347.17 552.163 1298.86 C 518.758 1295.71 476.647 1299.9 443.32 1298.82 C 458.189 1282.35 473.336 1266.14 488.755 1250.19 C 494.395 1244.28 503.842 1233.61 509.522 1228.52 C 501.263 1218.72 493.107 1206.74 486.14 1195.99 L 384.207 1196.07 C 368.546 1196.08 348.738 1197.06 333.47 1195.54 C 315.931 1193.8 311.514 1172.41 329.297 1162.28 C 346.233 1161.3 365.163 1161.75 382.258 1161.79 L 467.422 1161.98 C 482.768 1162.01 503.312 1162.84 518.068 1160.79 C 523.458 1160.03 538.372 1147.97 544.424 1144.12 L 518.96 1127.68 C 495.335 1127.26 470.821 1128.06 447.464 1127.15 C 450.185 1122.27 453.198 1117.23 455.059 1111.97 C 460.444 1108.25 476.993 1095.86 482.663 1094.59 C 499.038 1090.93 521.792 1094.05 538.957 1093.4 C 547.223 1078.48 567.303 1051.55 577.702 1036.37 C 570.977 1055.05 561.848 1075.52 553.564 1093.64 L 633.114 1093.68 C 648.736 1093.66 679.907 1087.5 679.062 1111.07 C 678.927 1115.58 676.878 1119.83 673.427 1122.74 C 671.218 1124.6 667.331 1126.69 664.441 1126.66 C 629.995 1126.26 590.26 1129.46 556.231 1127.07 C 564.731 1131.91 571.966 1135.15 580.832 1139.16 L 516.836 1193.62 C 527.226 1203.15 538.122 1213.46 548.877 1222.45 C 539.489 1236.79 528.43 1249.73 519.653 1264.11 C 532.974 1264.12 572.717 1260.64 581.572 1269.39 C 597.178 1284.81 566.201 1355.58 630.283 1393.05 C 642.662 1400.29 656.043 1405.43 670.489 1406.04 C 693.706 1407.02 717.024 1398.01 734.019 1382.27 C 750.792 1366.73 761.621 1343.56 762.328 1320.69 C 762.819 1304.8 759.538 1288.5 758.143 1272.68 C 738.542 1271.78 724.312 1272.57 705.199 1276.6 C 684.521 1251.12 663.331 1221.11 643.457 1194.63 C 665.577 1212.28 692.963 1234.18 713.356 1253.32 C 729.245 1247.97 746.625 1243.74 762.981 1239.84 L 762.857 953.847 C 755.379 946.317 747.707 938.982 739.851 931.848 C 730.016 945.774 716.736 965.606 706.351 978.374 C 695.673 974.363 683.441 967.327 673.22 961.871 C 659.022 967.68 632.453 979.329 618.874 986.589 C 628.361 976.867 659.427 952.31 671.497 943.563 C 681.537 947.282 691.306 951.439 701.189 955.111 C 708.679 937.778 717.742 914.099 725.822 897.921 C 737.72 893.406 750.737 889.29 762.89 885.237 C 763.049 858.001 763.047 830.763 762.885 803.527 C 762.76 751.006 760.398 715.615 791.214 669.46 C 771.785 668.776 742.531 668.314 723.203 669.128 C 711.436 676.748 699.837 685.002 688.009 692.363 C 694.233 703.592 701.798 714.84 707.604 725.813 C 702.484 736.48 694.739 748.612 688.566 758.915 C 677.32 777.423 666.322 796.081 655.575 814.883 C 662.582 790.327 670.316 761.413 678.292 737.433 C 660.284 744.02 639.68 751.755 621.214 756.906 C 621.858 764.816 622.128 771.322 622.247 779.266 C 631.502 782.91 635.611 788.379 635.434 798.675 C 634.949 826.968 634.408 855.661 635.066 883.928 C 635.578 905.896 632.514 924.913 623.798 945.212 C 602.341 998.933 556.511 1032.58 506.314 1057.46 C 499.518 1060.83 493.934 1058.89 487.412 1056.12 C 462.052 1043.48 439.955 1028.74 418.61 1010.34 C 401.321 1021.88 368.707 1038.73 349.467 1049.12 C 335.874 1034.01 318.469 1011.59 305.867 995.155 L 269.037 1022.73 L 223.302 966.027 C 216.101 957.099 206.385 944.316 198.884 936.054 C 199.869 894.873 200.096 853.676 199.565 812.486 C 199.353 762.594 193.067 717.764 227.191 676.129 C 235.212 680.399 243.04 686.255 249.932 692.168 L 250.273 654.373 C 280.345 634.005 298.308 635.578 332.807 635.65 L 387.036 635.776 L 570.736 635.813 C 597.133 635.808 641.063 637.067 666.669 635.201 C 661.352 646.492 654.773 658.181 648.825 669.229 L 413.539 669.084 L 345.341 668.998 C 316.609 668.96 298.123 665.781 272.698 681.198 C 284.543 695.477 296.614 709.566 308.908 723.461 C 305.033 739.472 301.503 755.564 298.321 771.727 C 312.366 787.432 330.331 810.83 344.919 824.539 C 324.028 811.17 299.977 794.363 279.696 779.875 C 281.685 763.191 284.053 746.555 286.799 729.978 C 275.946 722.817 259.489 712.276 248.191 706.237 C 228.871 737.154 232.845 776.413 232.726 811.669 C 232.452 849.298 232.564 886.929 233.063 924.555 C 246.507 943.721 259.496 963.203 272.016 982.985 C 285.578 975.924 298.591 968.196 311.993 961.114 C 324.531 976.37 341.865 1003.56 353.231 1020.83 C 371.207 1013.83 391.042 1007.47 409.409 1001.23 C 364.421 949.549 359.936 920.575 361.93 854.104 C 362.461 836.42 361.552 815.581 361.767 797.649 C 361.809 794.191 363.564 785.998 366.317 783.908 C 374.942 777.364 394.103 776.744 405.064 773.584 C 418.434 769.729 430.996 766.824 443.446 760.878 C 452.568 756.529 461.452 751.696 470.059 746.399 C 487.006 735.814 495.55 724.152 514.615 738.423 C 543.027 759.691 576.568 770.478 610.745 777.915 C 608.118 767.823 605.374 757.761 602.513 747.733 C 623.996 738.477 651.002 727.854 671.565 717.645 C 664.581 708.834 658.404 699.562 651.82 690.467 C 674.493 671.456 692.864 653.187 716.832 635.034 z M 394.931 809.711 C 394.043 873.51 385.196 928.073 433.423 977.008 C 437.976 981.657 442.797 986.035 447.862 990.12 C 451.4 988.749 455.609 986.69 459.268 986.779 C 457.308 989.046 452.854 990.504 449.874 991.757 C 461.909 1001.76 477.351 1011.96 490.999 1019.92 C 493.562 1021.54 495.669 1022.97 498.449 1024.23 C 542.976 999.298 582.29 971.012 597.045 919.01 C 604.726 891.939 601.932 840.214 601.802 810.608 C 574.984 804.743 552.639 798.511 527.628 786.154 C 520.982 782.871 500.982 768.711 496.767 768.715 C 470.614 787.379 426.935 806.691 394.931 809.711 z M 797.154 822.216 C 815.334 822.441 833.515 822.513 851.696 822.434 C 867.31 822.48 883.501 822.319 899.061 822.762 C 898.9 774.036 908.447 719.924 870.153 681.709 C 863.064 674.635 855.895 670.304 845.77 669.974 C 788.793 690.589 796.772 774.584 797.154 822.216 z"/>
<path transform="translate(0,0)" fill="#e63946" d="M 547.77 840.166 C 562.605 840.006 573.049 853.204 563.45 865.198 C 548.049 884.446 528.989 901.738 512.774 920.42 C 506.434 927.724 499.179 935.242 492.048 941.756 C 487.534 945.823 481.011 944.296 475.598 943.495 C 467.557 937.601 459.392 928.497 452.26 921.253 C 449.291 918.264 446.299 915.296 443.287 912.35 C 428.256 897.398 427.627 882.368 450.901 879.032 C 458.845 877.894 477.091 900.366 482.235 906.038 C 494.097 893.073 535.208 845.786 547.77 840.166 z"/>
<path transform="translate(0,0)" fill="#e63946" d="M 2023.72 957.561 C 2031.59 957.895 2040.07 957.774 2048 957.807 L 2048 1096.04 C 2034.51 1096.36 2030.51 1098.97 2027.85 1084.28 C 2010.93 1105.42 1979.51 1103.07 1968.29 1077.87 C 1951.71 1040.61 1971.11 976.055 2022.82 999.233 C 2024.32 986.781 2023.78 970.338 2023.72 957.561 z M 2007.26 1076.02 C 2015.46 1073.84 2017.85 1072.67 2022.52 1065.25 C 2022.64 1060.47 2022.95 1055.53 2022.89 1050.77 C 2022.63 1030.86 2029.76 1015.58 2003.18 1017.14 C 1995.57 1021.56 1993.19 1024.87 1990.87 1033.59 C 1987.2 1047.33 1987.86 1075.38 2007.26 1076.02 z"/>
</svg>